PathFileType	4	(X/Y/Z)	C:/Users/opensim2020/Desktop/walking_exp_matlab/subject02_walking13_straight_04.trc																																																																																																																									
DataRate	CameraRate	NumFrames	NumMarkers	Units	OrigDataRate	OrigDataStartFrame	OrigNumFrames																																																																																																																					
100	100	4	41	mm	100	1780	118																																																																																																																					
Frame#	Time	LFHD			RFHD			LBHD			RBHD			C7			T10			CLAV			STRN			RBAK			LSHO			LUPA			LELB			LFRM			LWRA			LWRB			LFIN			RSHO			RUPA			RELB			RFRM			RWRA			RWRB			RFIN			LASI			RASI			LPSI			RPSI			LTHI			LKNE			LTIB			LANK			LHEE			LTOE			RTHI			RKNE			RTIB			RANK			RHEE			RTOE			*39			*40		
		X1	Y1	Z1	X2	Y2	Z2	X3	Y3	Z3	X4	Y4	Z4	X5	Y5	Z5	X6	Y6	Z6	X7	Y7	Z7	X8	Y8	Z8	X9	Y9	Z9	X10	Y10	Z10	X11	Y11	Z11	X12	Y12	Z12	X13	Y13	Z13	X14	Y14	Z14	X15	Y15	Z15	X16	Y16	Z16	X17	Y17	Z17	X18	Y18	Z18	X19	Y19	Z19	X20	Y20	Z20	X21	Y21	Z21	X22	Y22	Z22	X23	Y23	Z23	X24	Y24	Z24	X25	Y25	Z25	X26	Y26	Z26	X27	Y27	Z27	X28	Y28	Z28	X29	Y29	Z29	X30	Y30	Z30	X31	Y31	Z31	X32	Y32	Z32	X33	Y33	Z33	X34	Y34	Z34	X35	Y35	Z35	X36	Y36	Z36	X37	Y37	Z37	X38	Y38	Z38	X39	Y39	Z39	X40	Y40	Z40	X41	Y41	Z41
																																																																																																																												
45	0.44	-244.27628	1715.07007	-1461.6582	-268.7113	1688.77124	-1322.06616	-380.2854	1658.63049	-1494.30359	-416.45526	1632.62305	-1357.10962	-458.3808	1511.84412	-1430.08984	-511.56653	1233.84607	-1428.06995	-320.15036	1443.05273	-1439.74426	-267.48874	1271.69531	-1440.64685	-518.93036	1331.72424	-1373.19775	-385.60394	1496.80981	-1604.87817	-355.56381	1324.34534	-1725.96216	-307.16785	1200.74438	-1777.80408	-224.38771	1100.88843	-1813.22998	-104.30794	1030.7572	-1801.71741	-144.89467	1009.29541	-1834.64075	-91.00629	972.18317	-1848.17297	-389.20883	1468.83777	-1244.02344	-448.20505	1284.49365	-1168.05542	-457.36154	1138.21606	-1150.84583	-445.90326	1018.10004	-1134.56458	-414.73715	886.70557	-1156.35425	-461.58701	888.56799	-1123.74475	-432.02057	821.04095	-1124.25464	-310.04517	971.66327	-1584.59875	-277.52423	959.50726	-1330.74731	-505.86716	1020.23242	-1475.71716	-498.59985	1016.01306	-1363.26648	-430.77533	668.11298	-1623.33704	-500.46246	475.1669	-1589.02197	-591.31042	301.95499	-1588.85303	-623.15009	78.3381	-1554.38818	-661.21198	52.26907	-1503.43054	-470.02429	34.0296	-1571.93799	-267.23169	666.6275	-1252.99133	-197.48717	473.93781	-1296.84839	-176.16417	287.72385	-1291.94958	-125.01999	100.58258	-1327.53015	-134.75987	42.47995	-1388.49683	35.88582	90.3043	-1307.32764	-350.26895	1788.42627	-1382.75171	-2846.01758	1034.29565	3357.41919
46	0.45	-230.63664	1712.22827	-1461.26514	-255.46172	1685.79736	-1321.93713	-366.64041	1656.03491	-1494.29773	-403.51633	1629.76746	-1357.37732	-445.17029	1508.91028	-1430.25171	-498.11362	1230.93579	-1427.87964	-306.80457	1440.24402	-1440.00354	-254.05865	1269.05823	-1441.30798	-505.37909	1328.70068	-1373.52271	-372.08875	1494.59363	-1604.39954	-339.47284	1323.70264	-1726.32434	-289.45651	1201.40479	-1779.32178	-202.82053	1104.70081	-1814.87366	-79.90401	1040.04077	-1803.75842	-119.70921	1016.43292	-1836.23438	-64.23859	981.97137	-1850.15381	-376.08789	1465.7373	-1244.23865	-436.37946	1282.07593	-1168.39612	-447.53403	1136.05994	-1151.53003	-438.33646	1015.61365	-1134.25073	-409.62692	883.69867	-1155.00806	-457.05817	886.80066	-1123.28442	-428.75116	818.59198	-1122.80225	-297.20569	969.40131	-1584.8667	-262.95901	956.95001	-1331.07507	-492.58475	1016.76776	-1475.15686	-484.61487	1012.47266	-1363.12732	-421.80682	666.54614	-1623.81506	-493.45035	474.45099	-1588.80469	-586.86017	302.47095	-1588.17358	-622.52722	79.6181	-1554.02844	-660.72089	54.07706	-1502.88965	-469.89795	33.95506	-1572.11694	-256.75296	662.00348	-1252.96826	-184.53822	470.98669	-1298.13269	-151.9617	287.63266	-1291.23792	-91.94122	102.28222	-1325.18628	-100.03906	44.08253	-1385.8219	71.03587	97.42567	-1308.51135	-336.61441	1785.49402	-1382.3562	-2845.88452	1034.21362	3357.39697
47	0.46	-216.9391	1709.45679	-1460.73022	-242.03711	1682.86389	-1321.50684	-352.98645	1653.50781	-1494.10571	-390.08505	1627.03613	-1357.30872	-431.99823	1506.04956	-1430.24939	-484.53296	1228.0592	-1427.65308	-293.42419	1437.57922	-1440.05322	-241.06732	1266.35364	-1441.82275	-492.17877	1325.88916	-1374.09204	-358.9671	1492.52258	-1604.32043	-323.88376	1323.08716	-1726.68433	-271.80072	1201.51965	-1780.10645	-181.80319	1108.33582	-1816.24585	-56.40568	1048.85596	-1805.11877	-95.32088	1023.29425	-1837.20825	-38.41722	991.61133	-1851.63318	-362.81323	1462.66809	-1244.32532	-425.60687	1279.43579	-1169.06116	-437.5256	1133.86328	-1152.17883	-430.57431	1013.70508	-1134.02209	-404.02081	880.97418	-1153.59607	-451.86362	885.0946	-1122.69116	-424.91116	816.24451	-1121.17529	-284.09128	967.09448	-1585.1405	-248.24199	954.46936	-1331.54639	-478.91492	1013.31604	-1474.56702	-470.1947	1008.97729	-1362.81091	-412.31644	665.04242	-1624.23267	-486.1011	473.92902	-1588.58289	-582.55695	303.78046	-1587.81531	-621.78796	81.13436	-1553.69238	-660.27795	56.38475	-1502.36743	-469.77591	33.83591	-1572.30188	-247.12509	657.83392	-1252.49219	-170.51639	468.54565	-1298.85388	-130.11554	287.63852	-1290.07532	-62.05828	104.28461	-1323.21191	-69.12876	45.56653	-1383.05444	102.38417	104.43056	-1311.17065	-323.01407	1782.81323	-1381.93884	-2846.00659	1034.34216	3357.51782
48	0.47	-203.3988	1706.91479	-1460.35266	-228.59996	1680.01013	-1320.94531	-339.3222	1651.13464	-1493.82715	-376.70847	1624.46533	-1357.08826	-418.77917	1503.33838	-1430.0376	-470.84048	1225.26758	-1427.3761	-280.02664	1435.15332	-1439.9707	-227.43729	1264.01123	-1442.08484	-478.56131	1322.92383	-1374.1936	-345.68573	1490.23926	-1603.70984	-308.52734	1322.21655	-1726.80396	-254.76698	1201.75391	-1781.06323	-161.1118	1111.5802	-1816.81348	-33.88974	1057.39014	-1805.95056	-71.79769	1030.07642	-1837.80603	-13.61852	1000.98096	-1852.52161	-349.61563	1459.67786	-1244.23657	-413.45328	1277.09473	-1169.04504	-427.29294	1131.63916	-1152.72913	-422.49969	1011.57117	-1133.38342	-397.97137	878.30133	-1152.02258	-446.15866	883.48041	-1122.06006	-420.52161	814.11853	-1119.65503	-270.80029	964.68256	-1585.44641	-233.24541	952.24902	-1332.15625	-465.03528	1010.10107	-1473.92847	-455.51605	1005.81177	-1362.29626	-402.37894	663.54138	-1624.71252	-478.25549	473.45084	-1588.36365	-577.81519	305.16263	-1587.20215	-620.93292	82.96152	-1553.45142	-659.56042	59.02697	-1501.90515	-469.6395	33.72509	-1572.48157	-237.08905	654.30981	-1251.56042	-155.45442	466.49194	-1299.25769	-109.81747	287.53217	-1289.90613	-36.10228	105.85815	-1321.64893	-42.84668	46.05239	-1380.4425	129.27028	110.27435	-1314.42859	-309.37454	1780.19153	-1381.36792	-2845.34619	1034.10901	3360.48657
